<svg width="31" height="26" viewBox="0 0 31 26" fill="none" xmlns="http://www.w3.org/2000/svg">
<g clip-path="url(#clip0_4_177)">
<path d="M5.16666 0C4.21406 0 3.44445 0.726171 3.44445 1.625V11.375H8.61111V9.75C8.61111 7.95742 10.1557 6.5 12.0555 6.5H24.1111V1.625C24.1111 0.726171 23.3415 0 22.3889 0H5.16666ZM12.0555 8.125C11.1029 8.125 10.3333 8.85117 10.3333 9.75V11.375H15.5C17.3998 11.375 18.9445 12.8324 18.9445 14.625V21.125H29.2778C30.2304 21.125 31 20.3989 31 19.5V9.75C31 8.85117 30.2304 8.125 29.2778 8.125H12.0555ZM24.9723 11.375H26.6945C27.168 11.375 27.5555 11.7406 27.5555 12.1875V13.8124C27.5555 14.2594 27.168 14.625 26.6945 14.625H24.9723C24.4986 14.625 24.1111 14.2594 24.1111 13.8124V12.1875C24.1111 11.7406 24.4986 11.375 24.9723 11.375ZM1.72223 13C0.769618 13 0 13.7261 0 14.625V15.2852L8.3474 21.1199C8.42274 21.1707 8.51423 21.2011 8.61111 21.2011C8.70798 21.2011 8.79949 21.1707 8.87483 21.1199L17.2223 15.2852V14.625C17.2223 13.7261 16.4526 13 15.5 13H1.72223ZM17.2223 17.3062L9.90277 22.425C9.53142 22.684 9.07933 22.8261 8.61111 22.8261C8.14288 22.8261 7.69618 22.684 7.31945 22.425L0 17.3062V24.375C0 25.2739 0.769618 26 1.72223 26H15.5C16.4526 26 17.2223 25.2739 17.2223 24.375V17.3062Z" fill="#F7E103"/>
</g>
<defs>
<clipPath id="clip0_4_177">
<rect width="31" height="26" fill="white"/>
</clipPath>
</defs>
</svg>
