<svg width="27" height="25" viewBox="0 0 27 25" fill="none" xmlns="http://www.w3.org/2000/svg">
<g clip-path="url(#clip0_4_182)">
<path d="M19.125 5.85938C19.125 8.52539 15.6984 13.2763 14.1938 15.2344C13.8328 15.7031 13.1625 15.7031 12.8062 15.2344C11.3016 13.2763 7.875 8.52539 7.875 5.85938C7.875 2.62207 10.3922 0 13.5 0C16.6078 0 19.125 2.62207 19.125 5.85938ZM19.5 9.78515C19.6641 9.44824 19.814 9.11133 19.9499 8.7793C19.9734 8.7207 19.9969 8.65723 20.0203 8.59863L25.4578 6.33301C26.1985 6.02539 27 6.5918 27 7.42188V20.6445C27 21.1231 26.7187 21.5527 26.2921 21.7335L19.5 24.5606V9.78515ZM6.44999 6.75293C6.5625 7.4414 6.78749 8.13476 7.05 8.7793C7.18593 9.11133 7.33593 9.44824 7.5 9.78515V22.0606L1.54219 24.546C0.801563 24.8536 0 24.2871 0 23.457V10.2344C0 9.75586 0.28125 9.32617 0.707812 9.14551L6.45469 6.75293H6.44999ZM15.3656 16.211C16.0172 15.3613 17.0391 13.9795 18 12.4512V24.624L9 21.9433V12.4512C9.96093 13.9795 10.9828 15.3613 11.6344 16.211C12.5953 17.461 14.4047 17.461 15.3656 16.211ZM13.5 7.42188C14.536 7.42188 15.375 6.54786 15.375 5.46875C15.375 4.38964 14.536 3.51562 13.5 3.51562C12.464 3.51562 11.625 4.38964 11.625 5.46875C11.625 6.54786 12.464 7.42188 13.5 7.42188Z" fill="#F7E103"/>
</g>
<defs>
<clipPath id="clip0_4_182">
<rect width="27" height="25" fill="white"/>
</clipPath>
</defs>
</svg>
