<svg width="39" height="34" viewBox="0 0 39 34" fill="none" xmlns="http://www.w3.org/2000/svg">
<path d="M8.47827 4.25C8.47827 1.90586 10.2756 0 12.4862 0H26.5139C28.7245 0 30.5217 1.90586 30.5217 4.25V29.75C30.5217 32.0942 28.7245 34 26.5139 34H12.4862C10.2756 34 8.47827 32.0942 8.47827 29.75V4.25ZM21.5039 29.75C21.5039 28.5746 20.6085 27.625 19.5 27.625C18.3916 27.625 17.4961 28.5746 17.4961 29.75C17.4961 30.9254 18.3916 31.875 19.5 31.875C20.6085 31.875 21.5039 30.9254 21.5039 29.75ZM26.5139 4.25H12.4862V25.5H26.5139V4.25Z" fill="#F7E103"/>
</svg>
