<svg width="54" height="46" viewBox="0 0 54 46" fill="none" xmlns="http://www.w3.org/2000/svg">
<path d="M39.2678 23.7459L19.5323 32.6811L20.7886 12.5384L39.2678 23.7459Z" fill="#D9D9D9"/>
<path d="M51.9624 11.1481C51.3844 9.02328 49.6816 7.34985 47.5196 6.78195C43.6007 5.75 27.8865 5.75 27.8865 5.75C27.8865 5.75 12.1723 5.75 8.25336 6.78195C6.09131 7.34994 4.3885 9.02328 3.81056 11.1481C2.7605 14.9994 2.7605 23.0349 2.7605 23.0349C2.7605 23.0349 2.7605 31.0703 3.81056 34.9216C4.3885 37.0464 6.09131 38.6502 8.25336 39.2181C12.1723 40.25 27.8865 40.25 27.8865 40.25C27.8865 40.25 43.6006 40.25 47.5196 39.2181C49.6816 38.6502 51.3844 37.0464 51.9624 34.9216C53.0124 31.0703 53.0124 23.0349 53.0124 23.0349C53.0124 23.0349 53.0124 14.9994 51.9624 11.1481ZM22.747 30.3304V15.7393L35.881 23.035L22.747 30.3304Z" fill="#FF0000"/>
</svg>
